<?xml version="1.0" standalone="yes"?>
<svg xmlns="http://www.w3.org/2000/svg" width="1614" height="1073">
<path style="fill:#e87910; stroke:none;" d="M0 383C32.7229 383 65.2812 384 98 384C108.982 384 127.696 387.643 137.816 383.397C146.509 379.749 155.386 360.555 161.13 353C177.799 331.078 197.12 311.049 217 292.039C270.09 241.274 334.168 202.112 400 170.258C647.736 50.3885 950.78 50.8738 1200 165.309C1403.58 258.788 1577.07 443.725 1592.91 675C1596.56 728.261 1587.85 782.579 1574.63 834C1559.59 892.508 1535.7 949.066 1508.75 1003C1502.24 1016.03 1495.73 1029.31 1488.58 1042C1487.86 1043.27 1480.82 1055.61 1486.9 1053.65C1490.16 1052.61 1492.7 1047.58 1494.63 1045C1500.46 1037.18 1505.92 1029.12 1511.33 1021C1534.13 986.806 1553.3 950.769 1569.42 913C1643.13 740.262 1622.63 542.039 1525.19 383C1328.99 62.7635 905.735 -50.5367 554 19.8002C478.237 34.9506 403.938 58.2062 334 91.2191C232.277 139.235 139.145 205.225 65.7292 291C48.541 311.082 32.333 332.001 17.6667 354C11.6603 363.01 3.3075 372.62 0 383z"/>
<path style="fill:#FFFFFF; stroke:none;" d="M958 716L957 716L919 750L919 751C944.734 777.276 968.952 803.338 1002 820.68C1068.03 855.329 1153.9 855.594 1225 839.575C1291.22 824.654 1347.88 776.116 1342.09 704C1341.04 691.047 1338.25 677.623 1332.22 666C1317.67 637.996 1288.97 621.664 1260 612C1205.38 593.778 1145.59 594.754 1089 587C1054.5 582.273 998.953 575.736 988.478 535C974.925 482.292 1029.08 455.901 1072 449.275C1152.94 436.779 1241.91 448.936 1293 520C1302.55 513.355 1311.08 504.894 1320 497.411C1322.56 495.262 1328.62 491.682 1328.67 487.911C1328.78 480.091 1314.27 467.933 1309 463.17C1286.44 442.766 1260.5 427.467 1232 417.053C1172.35 395.255 1101.2 395.323 1040 410.627C1010.41 418.026 979.514 431.174 959.439 455C928.106 492.186 923.395 564.499 964.001 597.192C986.096 614.981 1016.63 623.325 1044 628.8C1092.44 638.49 1141.42 640.153 1190 648.247C1221.66 653.521 1265.04 657.619 1283.54 688C1288.48 696.12 1290.95 705.521 1291 715C1291.26 769.75 1236.68 789.829 1191 798.389C1135.38 808.81 1063.72 803.279 1015 772.305C991.517 757.376 975.899 736.684 958 716M276 411L276 839L327 839L327 411L276 411M437 411L437 839L586 839C649.285 839 715.669 836.988 771 801.947C836.296 760.595 861.293 687.299 858.039 613C854.889 541.058 829.427 475.32 763 439.309C711.634 411.462 654.814 411 598 411L437 411M489 792L489 458L607 458C654.251 458 700.938 458.567 743 483.452C792.635 512.818 807 566.708 807 621C807 675.021 791.364 732.77 743 763.564C700.353 790.718 650.81 792 602 792L489 792z"/>
</svg>
